<svg width="160" height="72" viewBox="0 0 160 72" fill="none" xmlns="http://www.w3.org/2000/svg">
<path fill-rule="evenodd" clip-rule="evenodd" d="M25.2085 39.8959L31.2137 22.6042H33.797L31.1252 30.2345H32.6408C34.1981 30.2345 35.0002 30.9063 34.5991 32.2397C34.1981 33.573 31.9272 39.8959 31.9272 39.8959H29.3022L31.9272 32.4167C32.0158 31.974 32.0158 31.573 31.4845 31.573H30.6825L27.745 39.8959H25.2085ZM41.1929 30.1928H37.0418L31.0575 47.5782H33.5991L36.2554 39.8907H38.6043C40.4793 39.8907 40.7918 39.1772 41.146 38.1459L43.0679 32.6928C43.7397 30.8647 42.4429 30.1928 41.1929 30.1928ZM40.4793 32.2032C40.4793 32.2032 38.6043 37.5209 38.5575 37.7917C38.5106 38.0574 38.2918 38.5522 37.8439 38.5522H36.7189L39.1408 31.5313H40.2554C40.6564 31.5313 40.6095 31.8438 40.4793 32.2032Z" fill="#262626"/>
<path fill-rule="evenodd" clip-rule="evenodd" d="M30.1668 45.3178C25.5418 43.8282 22.2137 39.7292 22.2137 35.0834C22.2137 31.0001 25.1043 26.8803 28.9585 24.8334L29.7606 22.6042H16.9793C16.5366 22.6042 16.1147 22.6876 15.7033 22.8595C15.297 23.0261 14.9325 23.2709 14.62 23.5834C14.3075 23.8959 14.0679 24.2605 13.9012 24.6667C13.7293 25.0782 13.646 25.5053 13.646 25.948V44.224C13.646 46.0678 15.1408 47.5782 16.9793 47.5782H29.3595L30.1668 45.3178ZM35.2658 22.6042H50.9793C52.8231 22.6042 54.3231 24.073 54.3231 25.922V44.2501C54.3231 44.6928 54.2397 45.1147 54.0679 45.5261C53.896 45.9324 53.6564 46.2917 53.3439 46.6042C53.0314 46.9167 52.6668 47.1615 52.2554 47.3282C51.8491 47.4949 51.422 47.5782 50.9793 47.5782H35.1772L35.8491 45.5626C41.4585 44.7345 45.7345 40.3595 45.7345 35.0834C45.7345 29.4063 40.7814 24.7709 34.5522 24.4792L35.2658 22.6042ZM138.12 37.8334H130.818V47.6772H138.073C140.703 47.6772 140.88 45.1407 140.88 43.7605V40.8647C140.88 39.1251 139.99 37.8334 138.12 37.8334ZM138.61 41.2188V44.0261C138.61 44.8699 138.162 45.6303 137.365 45.6303H133.089V39.8855H137.542C138.208 39.8855 138.656 40.599 138.61 41.2188ZM127.682 43.8542C128.224 43.4063 128.578 42.7345 128.578 40.948C128.578 38.9376 127.193 37.8178 125.589 37.8178H119.021V47.6928H121.255V44.7917H125.094C125.99 44.7917 126.438 45.5053 126.438 45.9063V47.6928H128.578V45.6407C128.578 45.0574 128.401 44.2084 127.682 43.8542ZM125.365 42.7345H121.255V39.8751H125.094C126.214 39.8751 126.432 40.724 126.432 41.2136C126.432 41.7084 126.214 42.7345 125.365 42.7345ZM112.818 37.8386H109.88L105.922 46.297V47.6772H107.698L108.5 45.8959H114.188L115 47.6772H117.313L112.818 37.8386ZM109.438 43.849L111.349 39.6615L113.255 43.849H109.438ZM95.5939 47.6876V37.8282H97.87V41.5313H98.8491L102.729 37.8282H105.761L100.99 42.4688L104.958 46.3907V47.6876H103.266L99.0314 43.5834H97.87V47.6876H95.5939ZM83.646 40.1563V45.3595C83.646 46.3803 84.271 47.672 85.9585 47.672H91.3856C92.6304 47.672 93.6512 46.8282 93.6512 45.3595V44.4688H91.4325C91.4325 44.9115 91.3387 45.6251 90.495 45.6251H86.6252C86.3595 45.6251 85.9168 45.448 85.9168 44.7345V40.823C85.9168 40.823 85.7814 39.9324 86.672 39.9324H90.5835C90.9377 39.9324 91.3387 40.599 91.3856 41.047H93.6512V40.2032C93.6512 39.3542 92.8075 37.8855 91.3856 37.8438H85.9168C84.8491 37.8438 83.646 39.047 83.646 40.1563ZM78.1408 37.8178H75.1929L70.5939 47.698H73.0054L73.8127 45.9063H79.5158L80.3283 47.698H82.6512L78.1408 37.8178ZM74.745 43.8542L76.6668 39.6511L78.5418 43.8542H74.745ZM68.047 37.8334H60.8752V47.6824H63.146V44.9167H68.0418C69.3804 44.9167 70.896 44.1615 70.896 41.3959C70.896 38.5938 69.245 37.8334 68.047 37.8334ZM67.5106 42.8699H63.146V39.8855H67.3752C68.4897 39.8855 68.4897 40.9532 68.4897 41.4011C68.4897 41.8438 68.4897 42.8699 67.5106 42.8699ZM60.8752 22.7657V32.6095H63.146V28.6876H69.0679V32.6095H71.3387V22.7657H69.0679V26.6407H63.146V22.7657H60.8752ZM82.8179 22.7553H75.2345C74.2085 22.7553 73.6772 23.3386 73.6772 24.2292V31.323C73.6772 31.9063 74.2085 32.6199 75.1043 32.6199H82.8179V30.5678H75.9481V28.6928H81.6564V26.6407H75.9481V24.8126H82.8179V22.7553ZM101.12 22.7657V31.1355C101.12 31.8959 101.698 32.6042 102.719 32.6042H109.401V30.5574H103.391V22.7657H101.12ZM126.979 32.6199V24.8074H130.307V22.7553H121.432V24.8074H124.708V32.6199H126.979ZM137.5 32.6251V24.8074H140.823V22.7501H131.943V24.8074H135.224V32.6251H137.5ZM119.766 22.7605H112.188C111.162 22.7605 110.63 23.3386 110.63 24.2345V31.3178C110.63 31.9011 111.162 32.6147 112.057 32.6147H119.766V30.5626H112.901V28.6876H118.604V26.6407H112.901V24.8126H119.766V22.7605ZM94.9116 32.6251C94.2397 32.6251 93.5939 31.6199 93.4585 31.1303L91.7866 25.9636L89.5939 32.6303H88.2137C87.5418 32.6303 86.9585 31.599 86.8283 31.1095L84.0991 22.7449H86.3804L88.4793 29.5001L90.7137 22.7917H92.8543L95.0887 29.5001L97.1877 22.7449H99.4689L96.2502 32.6303H94.9116V32.6251ZM145.469 23.3334C145.037 22.8959 144.516 22.6772 143.901 22.6876C143.292 22.6876 142.776 22.9063 142.349 23.3334C141.906 23.7605 141.693 24.2813 141.703 24.8907C141.703 25.5053 141.912 26.0261 142.339 26.4584C142.771 26.8907 143.292 27.1095 143.901 27.1095C144.516 27.1095 145.037 26.8907 145.469 26.4584C145.906 26.0261 146.12 25.5053 146.11 24.8907C146.11 24.2813 145.896 23.7605 145.469 23.3334ZM145.245 26.2449C144.88 26.6251 144.432 26.8126 143.901 26.8022C143.375 26.8126 142.927 26.6251 142.557 26.2449C142.182 25.8699 142 25.422 142.011 24.8907C142.011 24.3647 142.193 23.9167 142.563 23.547C142.932 23.172 143.38 22.9845 143.901 22.9845C144.427 22.9845 144.875 23.172 145.245 23.547C145.615 23.9167 145.802 24.3647 145.802 24.8907C145.802 25.422 145.615 25.8699 145.245 26.2449Z" fill="#262626"/>
<path fill-rule="evenodd" clip-rule="evenodd" d="M144.885 26.0677C144.87 26.026 144.864 25.9844 144.864 25.9375C144.859 25.8802 144.859 25.8177 144.859 25.7604V25.5833C144.854 25.4427 144.807 25.3177 144.724 25.2083C144.635 25.0781 144.5 25 144.307 24.9688C144.432 24.9531 144.552 24.9167 144.661 24.8542C144.818 24.75 144.896 24.5885 144.896 24.375C144.896 24.0677 144.771 23.8646 144.521 23.7604C144.38 23.7031 144.161 23.6719 143.859 23.6719H143.01V26.099H143.437V25.1406H143.776C144 25.1406 144.161 25.1667 144.25 25.2188C144.401 25.3073 144.479 25.4948 144.479 25.776V25.9688L144.489 26.0469L144.495 26.0729C144.495 26.0781 144.5 26.0885 144.5 26.099H144.901L144.885 26.0677ZM144.229 24.7865C144.14 24.8229 144.005 24.8438 143.823 24.8438H143.437V23.9635H143.802C144.042 23.9635 144.208 23.9948 144.318 24.0521C144.427 24.1146 144.479 24.2344 144.479 24.4115C144.479 24.5937 144.396 24.724 144.229 24.7865Z" fill="#262626"/>
</svg>
