<svg width="24" height="24" viewBox="0 0 24 24" fill="none" xmlns="http://www.w3.org/2000/svg">
<rect width="24" height="24" rx="12" fill="#9867FF"/>
<path d="M14.7 10.4388L9.29999 7.32483" stroke="white" stroke-width="1.2" stroke-linecap="round" stroke-linejoin="round"/>
<path d="M17.4 14.3988V9.59877C17.3998 9.38833 17.3442 9.18166 17.2389 8.99947C17.1336 8.81728 16.9822 8.66599 16.8 8.56077L12.6 6.16077C12.4176 6.05545 12.2106 6 12 6C11.7893 6 11.5824 6.05545 11.4 6.16077L7.19998 8.56077C7.01773 8.66599 6.86636 8.81728 6.76105 8.99947C6.65574 9.18166 6.60019 9.38833 6.59998 9.59877V14.3988C6.60019 14.6092 6.65574 14.8159 6.76105 14.9981C6.86636 15.1803 7.01773 15.3316 7.19998 15.4368L11.4 17.8368C11.5824 17.9421 11.7893 17.9975 12 17.9975C12.2106 17.9975 12.4176 17.9421 12.6 17.8368L16.8 15.4368C16.9822 15.3316 17.1336 15.1803 17.2389 14.9981C17.3442 14.8159 17.3998 14.6092 17.4 14.3988Z" stroke="white" stroke-width="1.2" stroke-linecap="round" stroke-linejoin="round"/>
<path d="M6.76202 8.97479L12 12.0048L17.238 8.97479" stroke="white" stroke-width="1.2" stroke-linecap="round" stroke-linejoin="round"/>
<path d="M12 18.0468V11.9988" stroke="white" stroke-width="1.2" stroke-linecap="round" stroke-linejoin="round"/>
</svg>
