<svg width="160" height="72" viewBox="0 0 160 72" fill="none" xmlns="http://www.w3.org/2000/svg">
<g clip-path="url(#clip0_717_15829)">
<mask id="mask0_717_15829" style="mask-type:luminance" maskUnits="userSpaceOnUse" x="13" y="30" width="6" height="6">
<path d="M13.5833 30.6667H18.6666V36.0001H13.5833V30.6667Z" fill="white"/>
</mask>
<g mask="url(#mask0_717_15829)">
<path fill-rule="evenodd" clip-rule="evenodd" d="M15.8177 35.1772C15.3073 35.6928 14.4792 35.6928 13.9687 35.1772C13.4531 34.6615 13.4531 33.8386 13.9687 33.323L15.8073 31.4792C16.3229 30.9636 17.1458 30.9636 17.6615 31.4792C18.1667 31.9949 18.1771 32.8178 17.6615 33.3334L15.8177 35.1772Z" fill="#262626"/>
</g>
<mask id="mask1_717_15829" style="mask-type:luminance" maskUnits="userSpaceOnUse" x="20" y="24" width="6" height="6">
<path d="M20 24.5417H25.3333V29.3334H20V24.5417Z" fill="white"/>
</mask>
<g mask="url(#mask1_717_15829)">
<path fill-rule="evenodd" clip-rule="evenodd" d="M20.5312 26.8439C20.0312 26.3335 20.0312 25.5002 20.5312 24.9897C21.0312 24.4741 21.849 24.4741 22.3594 24.9897L24.1667 26.8335C24.6667 27.3491 24.6667 28.1825 24.1667 28.6929C23.6667 29.2085 22.849 29.2085 22.3385 28.6929L20.5312 26.8439Z" fill="#262626"/>
</g>
<path fill-rule="evenodd" clip-rule="evenodd" d="M16.5051 29.9845C15.7968 29.9845 15.2083 29.3907 15.2083 28.6615C15.2083 27.9272 15.7864 27.3386 16.5051 27.3386H19.0676C19.7812 27.3386 20.3645 27.9272 20.3645 28.6615C20.3645 29.3907 19.7864 29.9845 19.0676 29.9845H16.5051Z" fill="#262626"/>
<path fill-rule="evenodd" clip-rule="evenodd" d="M18.9583 39.1927C18.9583 39.9167 18.3645 40.5052 17.6353 40.5052C16.9062 40.5052 16.3176 39.9167 16.3176 39.1927V36.5938C16.3176 35.8646 16.9062 35.2812 17.6353 35.2812C18.3645 35.2812 18.9583 35.8646 18.9583 36.5938V39.1927Z" fill="#262626"/>
<path fill-rule="evenodd" clip-rule="evenodd" d="M24.1562 39.823C24.6666 40.3386 24.6666 41.172 24.1562 41.6824C23.6405 42.1928 22.8176 42.1928 22.302 41.6824L20.4583 39.8334C19.9478 39.3178 19.9478 38.4845 20.4583 37.9792C20.9739 37.4636 21.802 37.4636 22.3124 37.9792L24.1562 39.823Z" fill="#262626"/>
<path fill-rule="evenodd" clip-rule="evenodd" d="M28.1667 36.6875C28.8907 36.6875 29.474 37.276 29.474 38.0104C29.474 38.7396 28.8907 39.3333 28.1667 39.3333H25.5678C24.849 39.3333 24.2605 38.7396 24.2605 38.0104C24.2605 37.276 24.849 36.6875 25.5678 36.6875H28.1667Z" fill="#262626"/>
<path fill-rule="evenodd" clip-rule="evenodd" d="M28.802 31.5469C29.3176 31.0365 30.1405 31.0469 30.6562 31.5469C31.1666 32.0521 31.1666 32.8698 30.6562 33.3802L28.8124 35.1979C28.302 35.7083 27.4739 35.7031 26.9583 35.1979C26.4478 34.6979 26.4478 33.875 26.9583 33.3646L28.802 31.5521V31.5469Z" fill="#262626"/>
<path fill-rule="evenodd" clip-rule="evenodd" d="M25.6719 27.5261C25.6719 26.8126 26.2604 26.2292 26.9896 26.2292C27.724 26.2292 28.3125 26.8074 28.3125 27.5261V30.099C28.3125 30.8074 27.724 31.3959 26.9896 31.3959C26.2604 31.3959 25.6719 30.8178 25.6719 30.099V27.5261Z" fill="#262626"/>
<mask id="mask2_717_15829" style="mask-type:luminance" maskUnits="userSpaceOnUse" x="36" y="24" width="111" height="23">
<path d="M36 24.5417H146.13V46.1407H36V24.5417Z" fill="white"/>
</mask>
<g mask="url(#mask2_717_15829)">
<path fill-rule="evenodd" clip-rule="evenodd" d="M146.13 24.573V40.9167H143.542V24.573H146.13ZM111.682 24.573V31.9845H111.729C111.828 31.7709 111.974 31.5574 112.172 31.349C112.37 31.1407 112.589 30.9532 112.849 30.7917C113.109 30.6251 113.401 30.4897 113.734 30.3907C114.062 30.2865 114.427 30.2345 114.812 30.2345C115.49 30.2345 116.068 30.3595 116.552 30.5938C117.031 30.8282 117.427 31.1459 117.74 31.5365C118.047 31.922 118.271 32.3699 118.417 32.8751C118.562 33.3803 118.635 33.9011 118.635 34.4324V40.922H116.036V35.2084C116.036 34.9063 116.016 34.5938 115.974 34.2709C115.927 33.9428 115.839 33.6511 115.703 33.3855C115.562 33.1199 115.37 32.9011 115.115 32.724C114.865 32.5522 114.531 32.4636 114.115 32.4636C113.693 32.4636 113.333 32.5417 113.036 32.698C112.729 32.8595 112.484 33.0678 112.281 33.3334C112.078 33.599 111.922 33.9011 111.828 34.2292C111.729 34.5626 111.677 34.9011 111.677 35.2501V40.9167H109.089V24.573H111.682ZM75.9896 24.573V31.9845H76.0365C76.1354 31.7709 76.2812 31.5574 76.4792 31.349C76.6771 31.1407 76.8958 30.9532 77.1562 30.7917C77.4167 30.6251 77.7083 30.4897 78.0469 30.3907C78.375 30.2865 78.7396 30.2345 79.125 30.2345C79.8021 30.2345 80.3802 30.3595 80.8646 30.5938C81.349 30.8282 81.7396 31.1459 82.0521 31.5365C82.3646 31.922 82.5938 32.3699 82.7292 32.8751C82.875 33.3803 82.9479 33.9011 82.9479 34.4324V40.922H80.3594V35.2084C80.3594 34.9063 80.3385 34.5938 80.2917 34.2709C80.25 33.9428 80.1615 33.6511 80.0208 33.3855C79.8802 33.1199 79.6927 32.9011 79.4375 32.724C79.1823 32.5522 78.8438 32.4636 78.4323 32.4636C78.0208 32.4636 77.6615 32.5417 77.3542 32.698C77.0521 32.8595 76.8021 33.0678 76.599 33.3334C76.3958 33.599 76.2448 33.9011 76.1458 34.2292C76.0469 34.5626 75.9948 34.9011 75.9948 35.2501V40.9167H73.4062V24.573H75.9948H75.9896ZM38.9271 24.573V31.8542H38.9896C39.1146 31.6824 39.2865 31.4949 39.4844 31.3126C39.6875 31.1251 39.9271 30.948 40.2083 30.7917C40.4896 30.6303 40.8177 30.5001 41.1927 30.3907C41.5677 30.2813 41.9896 30.2292 42.4688 30.2292C43.2031 30.2292 43.875 30.3699 44.5 30.6511C45.1198 30.9324 45.6563 31.3178 46.099 31.8074C46.5417 32.297 46.8906 32.8751 47.1354 33.5365C47.3802 34.198 47.5 34.9115 47.5 35.6824C47.5 36.4532 47.3802 37.1615 47.1458 37.8334C46.9115 38.5001 46.5677 39.0834 46.1302 39.5834C45.6927 40.0782 45.1615 40.4688 44.5312 40.7709C43.901 41.0678 43.1979 41.2136 42.4062 41.2136C41.6667 41.2136 40.9844 41.0574 40.3438 40.7397C39.6979 40.422 39.1979 39.9636 38.8385 39.3542H38.7917V40.9115H36.3281V24.573H38.9271ZM44.8646 35.6824C44.8646 35.2813 44.8021 34.8803 44.6823 34.4792C44.5625 34.0834 44.3802 33.7292 44.1302 33.4115C43.8854 33.0938 43.5781 32.8386 43.2031 32.6407C42.8281 32.4428 42.3906 32.349 41.8854 32.349C41.4063 32.349 40.9844 32.448 40.6094 32.6563C40.2344 32.8595 39.9115 33.1199 39.651 33.4324C39.3906 33.7397 39.1771 34.1095 39.0469 34.5105C38.9063 34.9115 38.8438 35.3178 38.8438 35.7188C38.8438 36.1199 38.9115 36.5209 39.0469 36.922C39.1875 37.3178 39.3802 37.672 39.651 37.9897C39.9167 38.3074 40.2344 38.5626 40.6094 38.7605C40.9844 38.9584 41.4063 39.0522 41.8854 39.0522C42.3854 39.0522 42.8281 38.9532 43.2031 38.7501C43.5781 38.5417 43.8906 38.2813 44.1302 37.974C44.3802 37.6511 44.5573 37.2917 44.6823 36.8907C44.8021 36.4897 44.8646 36.0834 44.8646 35.6824ZM49.0208 30.5365H51.5V32.2657H51.5469C51.8281 31.6615 52.2344 31.172 52.7552 30.797C53.276 30.422 53.8802 30.2345 54.5729 30.2345C54.6719 30.2345 54.7813 30.2345 54.8958 30.2501C55.0104 30.2553 55.1146 30.2761 55.2031 30.3074V32.6876C55.0312 32.6407 54.875 32.6147 54.7552 32.599C54.6354 32.5834 54.5156 32.5782 54.401 32.5782C53.8125 32.5782 53.3333 32.6876 52.974 32.9011C52.6094 33.1199 52.3333 33.3803 52.1302 33.6772C51.9271 33.9845 51.7917 34.2865 51.7188 34.6042C51.6458 34.9272 51.6094 35.1772 51.6094 35.3647V40.922H49.0208V30.5365ZM55.9375 40.9167V30.5365H58.526V40.9167H55.9375ZM55.5677 27.0105C55.5677 26.5938 55.724 26.2292 56.0312 25.9167C56.3438 25.6042 56.7396 25.4532 57.2135 25.4532C57.6875 25.4532 58.0885 25.599 58.4115 25.9011C58.7344 26.1928 58.901 26.5678 58.901 27.0105C58.901 27.4584 58.7344 27.8334 58.4115 28.1251C58.0885 28.4167 57.6875 28.5678 57.2135 28.5678C56.7396 28.5678 56.3438 28.4167 56.0312 28.1042C55.724 27.7917 55.5677 27.4324 55.5677 27.0105ZM71.2344 30.5365V39.9897C71.2344 40.922 71.1198 41.7709 70.8906 42.5313C70.6615 43.2917 70.3073 43.9324 69.8281 44.4584C69.3438 44.9897 68.7344 45.3959 68 45.6824C67.2604 45.9688 66.3906 46.1147 65.3802 46.1147C64.9635 46.1147 64.5208 46.073 64.0573 46.0053C63.5885 45.9376 63.1302 45.8282 62.6719 45.6824C62.224 45.5365 61.7812 45.3542 61.3646 45.1407C60.9479 44.922 60.5729 44.6772 60.2396 44.4011L61.7344 42.3907C62.2344 42.8699 62.8073 43.2345 63.4427 43.4845C64.0729 43.7397 64.7188 43.8699 65.3646 43.8699C66.0104 43.8699 66.5052 43.7813 66.9323 43.599C67.3594 43.422 67.6927 43.1772 67.9479 42.8542C68.2031 42.5365 68.3802 42.1615 68.4844 41.7292C68.5938 41.297 68.651 40.823 68.651 40.3074V39.547H68.6094C68.2344 40.0522 67.7552 40.4376 67.1719 40.7084C66.5885 40.974 65.9375 41.1095 65.2188 41.1095C64.4375 41.1095 63.7344 40.9636 63.099 40.6772C62.4635 40.3907 61.9271 39.9949 61.4844 39.5053C61.0469 39.0157 60.7031 38.4428 60.4583 37.7865C60.2083 37.1303 60.0885 36.4324 60.0885 35.7032C60.0885 34.9688 60.2083 34.2449 60.4427 33.5834C60.6771 32.922 61.0208 32.3438 61.4583 31.8542C61.8958 31.3647 62.4323 30.974 63.0573 30.6824C63.6875 30.3959 64.3854 30.2501 65.1667 30.2501C65.901 30.2501 66.5885 30.4011 67.2188 30.7032C67.8542 31.0053 68.3542 31.4688 68.7292 32.1042H68.7708V30.547H71.2344V30.5365ZM65.7083 32.3542C65.2292 32.3542 64.8125 32.4428 64.4427 32.6147C64.0729 32.7865 63.7656 33.0209 63.5156 33.323C63.2604 33.6147 63.0729 33.9636 62.9323 34.3699C62.7917 34.7709 62.7292 35.2032 62.7292 35.6667C62.7292 36.0886 62.7969 36.4897 62.9323 36.8751C63.0729 37.2657 63.2604 37.6147 63.5156 37.9272C63.7708 38.2397 64.0729 38.4845 64.4427 38.672C64.8125 38.8542 65.224 38.9532 65.6875 38.9532C66.151 38.9532 66.5885 38.8647 66.974 38.6824C67.3594 38.5053 67.6823 38.2657 67.9479 37.9584C68.2135 37.6511 68.4167 37.3022 68.5625 36.9115C68.7083 36.5157 68.7812 36.0938 68.7812 35.6615C68.7812 35.2292 68.7083 34.7917 68.5625 34.3855C68.4167 33.9845 68.2135 33.6251 67.9479 33.323C67.6823 33.0157 67.3646 32.7813 66.9896 32.6095C66.6146 32.4376 66.1875 32.349 65.7135 32.349L65.7083 32.3542ZM83.4948 32.6147V30.5417H85.3073V27.5313H87.8594V30.5417H90.4479V32.6147H87.8594V37.4376C87.8594 37.9011 87.9427 38.2813 88.1094 38.5834C88.2708 38.8855 88.6458 39.0313 89.2188 39.0313C89.3906 39.0313 89.5781 39.0157 89.776 38.974C89.9792 38.9376 90.1563 38.8855 90.3177 38.8178L90.4062 40.8542C90.1771 40.9428 89.9063 41.0053 89.5885 41.0574C89.2708 41.1095 88.9635 41.1355 88.6771 41.1355C87.9844 41.1355 87.4271 41.0365 86.9948 40.8386C86.5625 40.6407 86.224 40.3751 85.9688 40.0365C85.7135 39.7032 85.5417 39.3126 85.4479 38.8699C85.3542 38.4272 85.3073 37.9584 85.3073 37.448V32.6042H83.4948V32.6147ZM91.2031 30.5417H94.0156L96.1771 37.9845H96.2188L98.4479 30.5417H101.214L103.464 37.9845H103.505L105.708 30.5417H108.406L104.823 40.922H102.188L99.8333 33.6563H99.7865L97.4531 40.922H94.8177L91.2135 30.5417H91.2031ZM127.984 34.698C127.984 34.3647 127.938 34.047 127.844 33.7397C127.75 33.4376 127.604 33.1667 127.401 32.9376C127.198 32.7136 126.943 32.5261 126.63 32.3855C126.318 32.2449 125.958 32.1824 125.542 32.1824C124.76 32.1824 124.104 32.4167 123.568 32.8907C123.026 33.3595 122.729 33.9584 122.672 34.698H127.984ZM130.578 35.8647V36.2084C130.578 36.323 130.573 36.4376 130.562 36.5522H122.677C122.703 36.9272 122.802 37.2709 122.969 37.5834C123.135 37.8959 123.354 38.1615 123.63 38.3855C123.901 38.6095 124.214 38.7865 124.557 38.9115C124.896 39.0417 125.26 39.1095 125.635 39.1095C126.281 39.1095 126.828 38.9897 127.281 38.7553C127.724 38.5209 128.094 38.1876 128.385 37.7657L130.109 39.1563C129.089 40.5417 127.604 41.2292 125.661 41.2292C124.854 41.2292 124.109 41.099 123.432 40.8542C122.755 40.599 122.167 40.2449 121.672 39.7865C121.177 39.3178 120.786 38.7605 120.505 38.0886C120.224 37.4167 120.089 36.6563 120.089 35.8022C120.089 34.948 120.224 34.2084 120.505 33.5209C120.786 32.8334 121.172 32.2553 121.661 31.7709C122.151 31.2865 122.734 30.9115 123.401 30.6459C124.073 30.3751 124.797 30.2449 125.573 30.2449C126.297 30.2449 126.953 30.3647 127.573 30.599C128.182 30.8334 128.714 31.1928 129.156 31.6615C129.604 32.1303 129.953 32.7136 130.203 33.4115C130.458 34.1095 130.583 34.9324 130.583 35.8647H130.578ZM139.396 34.698C139.396 34.3647 139.354 34.047 139.255 33.7397C139.161 33.4376 139.016 33.1667 138.812 32.9376C138.609 32.7136 138.354 32.5261 138.047 32.3855C137.734 32.2449 137.37 32.1824 136.953 32.1824C136.172 32.1824 135.516 32.4167 134.974 32.8907C134.432 33.3595 134.135 33.9584 134.078 34.698H139.396ZM141.984 35.8647V36.2084C141.984 36.323 141.979 36.4376 141.969 36.5522H134.083C134.109 36.9272 134.208 37.2709 134.375 37.5834C134.542 37.8959 134.76 38.1615 135.036 38.3855C135.307 38.6095 135.62 38.7865 135.964 38.9115C136.307 39.0417 136.667 39.1095 137.042 39.1095C137.688 39.1095 138.234 38.9897 138.688 38.7553C139.13 38.5209 139.5 38.1876 139.792 37.7657L141.516 39.1563C140.495 40.5417 139.01 41.2292 137.068 41.2292C136.26 41.2292 135.516 41.099 134.839 40.8542C134.161 40.599 133.578 40.2449 133.078 39.7865C132.583 39.3178 132.193 38.7605 131.911 38.0886C131.635 37.4167 131.495 36.6563 131.495 35.8022C131.495 34.948 131.635 34.2084 131.911 33.5209C132.193 32.8334 132.578 32.2553 133.068 31.7709C133.557 31.2865 134.135 30.9115 134.807 30.6459C135.479 30.3751 136.203 30.2449 136.979 30.2449C137.693 30.2449 138.359 30.3647 138.979 30.599C139.589 30.8334 140.12 31.1928 140.562 31.6615C141.01 32.1303 141.359 32.7136 141.609 33.4115C141.865 34.1095 141.995 34.9324 141.995 35.8647H141.984Z" fill="#262626"/>
</g>
</g>
<defs>
<clipPath id="clip0_717_15829">
<rect width="160" height="72" fill="white"/>
</clipPath>
</defs>
</svg>
