<svg width="160" height="72" viewBox="0 0 160 72" fill="none" xmlns="http://www.w3.org/2000/svg">
<g clip-path="url(#clip0_717_15751)">
<path d="M65.8906 36.5937V36.5416C65.8906 32.802 68.7187 29.7083 72.6875 29.7083C74.6615 29.7083 76.026 30.2447 77.125 31.177C77.3125 31.3333 77.4583 31.5312 77.5521 31.7499C77.6563 31.9687 77.7083 32.2083 77.7031 32.4478C77.7031 32.6718 77.6562 32.8905 77.5729 33.0937C77.4896 33.2916 77.3698 33.4791 77.2083 33.6353C77.0521 33.7916 76.8698 33.9166 76.6615 33.9999C76.4583 34.0833 76.25 34.1197 76.0312 34.1197C75.6458 34.1197 75.2656 33.9947 74.9688 33.7551C74.3281 33.2083 73.5052 32.9114 72.6667 32.9218C70.8333 32.9218 69.526 34.5624 69.526 36.4999V36.5468C69.526 38.5572 70.8073 40.177 72.8177 40.177C73.7083 40.177 74.5573 39.8541 75.2344 39.2708C75.526 39.0572 75.8646 38.9322 76.224 38.927C76.5365 38.927 76.8438 39.0312 77.1042 39.2135C77.3594 39.3905 77.5625 39.651 77.6771 39.9583C77.7865 40.2551 77.8021 40.5833 77.724 40.8958C77.651 41.2083 77.4844 41.4843 77.2448 41.6978C76.1563 42.6978 74.7813 43.3905 72.651 43.3905C71.7604 43.4114 70.8802 43.2499 70.0573 42.9114C69.2292 42.578 68.4792 42.0833 67.8542 41.4478C67.224 40.8124 66.7292 40.0624 66.3854 39.2291C66.0573 38.401 65.8802 37.5051 65.8958 36.6093L65.8906 36.5937Z" fill="#262626"/>
<path d="M80.3333 31.6667C80.3281 31.4115 80.3646 31.1667 80.4531 30.9323C80.5416 30.6979 80.6771 30.4844 80.8489 30.3021C81.026 30.125 81.2291 29.9792 81.4531 29.8802C81.6771 29.7865 81.9271 29.7344 82.1719 29.7344C82.4114 29.7344 82.6614 29.7865 82.8854 29.8802C83.1094 29.9792 83.3229 30.125 83.4896 30.3021C83.6614 30.4844 83.7969 30.6979 83.8802 30.9323C83.9687 31.1667 84.0052 31.4167 84 31.6667V32.25C84.5312 30.9792 85.401 29.7969 86.4896 29.7969C87.5781 29.7969 88.2864 30.5573 88.2864 31.6146C88.2969 32.0208 88.1666 32.4219 87.9114 32.75C87.6562 33.0677 87.2969 33.2865 86.901 33.3646C85.0364 33.8021 83.9948 35.25 83.9948 37.8958V41.375C84 41.6302 83.9635 41.875 83.875 42.1094C83.7812 42.3438 83.651 42.5573 83.4844 42.7396C83.3073 42.9167 83.1041 43.0625 82.8802 43.1615C82.651 43.2552 82.4062 43.3073 82.1614 43.3073C81.9219 43.3073 81.6719 43.2552 81.4479 43.1615C81.2135 43.0625 81.0104 42.9167 80.8437 42.7396C80.6719 42.5573 80.5364 42.3438 80.4479 42.1094C80.3594 41.875 80.3177 41.625 80.3281 41.375V31.6667H80.3333Z" fill="#262626"/>
<path d="M96.2292 43.3801C92.3386 43.3801 89.4584 40.6093 89.4584 36.5937V36.5416C89.4584 32.802 92.0938 29.7083 95.8594 29.7083C100.188 29.7083 102.099 33.3124 102.099 36.026C102.115 36.2603 102.073 36.4947 101.99 36.7135C101.911 36.9374 101.786 37.1353 101.62 37.3072C101.458 37.4739 101.26 37.6041 101.052 37.6926C100.833 37.7864 100.604 37.8228 100.37 37.8176H93.1042C93.4688 39.5103 94.6302 40.3905 96.2761 40.3905C97.2136 40.3958 98.1355 40.0937 98.8855 39.5103C99.1407 39.3072 99.4584 39.203 99.7813 39.2187C99.974 39.2187 100.161 39.2499 100.339 39.3228C100.516 39.3905 100.672 39.5051 100.807 39.6405C100.943 39.776 101.047 39.9374 101.115 40.1197C101.188 40.302 101.219 40.4895 101.214 40.6822C101.214 40.8905 101.167 41.0989 101.083 41.2864C101 41.4739 100.87 41.651 100.719 41.7864C99.4636 42.8541 97.8646 43.427 96.224 43.3801H96.2292ZM98.6042 35.4895C98.3855 33.8228 97.4219 32.6978 95.8698 32.6978C94.323 32.6978 93.3542 33.7968 93.0677 35.4895H98.6042Z" fill="#262626"/>
<path d="M117.953 41.3699C117.958 41.6251 117.922 41.8699 117.833 42.1042C117.745 42.3334 117.609 42.5522 117.438 42.7292C117.26 42.9115 117.057 43.0574 116.828 43.1511C116.604 43.2501 116.354 43.3022 116.109 43.3022C115.865 43.3022 115.615 43.2501 115.391 43.1511C115.161 43.0574 114.958 42.9115 114.786 42.7292C114.609 42.5522 114.479 42.3334 114.385 42.1042C114.297 41.8699 114.26 41.6147 114.266 41.3699V41.1928C113.37 42.422 112.141 43.3282 110.224 43.3282C107.203 43.3282 104.318 40.922 104.318 36.5417V36.4949C104.318 32.1042 107.146 29.7084 110.224 29.7084C112.188 29.7084 113.396 30.6147 114.266 31.6667V26.9115C114.286 26.4324 114.484 25.974 114.828 25.6407C115.177 25.3074 115.63 25.1199 116.104 25.1199C116.578 25.1199 117.036 25.3074 117.375 25.6407C117.724 25.9792 117.922 26.4324 117.943 26.9115V41.3699H117.953ZM108.01 36.4949V36.5417C108.01 38.7188 109.464 40.172 111.182 40.172C112.896 40.172 114.323 38.724 114.323 36.5417V36.4949C114.323 34.3126 112.896 32.8647 111.182 32.8647C109.464 32.8647 108.01 34.2917 108.01 36.4949Z" fill="#262626"/>
<path d="M121.193 26.8124C121.193 25.7343 122.089 25.0676 123.25 25.0676C124.406 25.0676 125.302 25.7291 125.302 26.8124V26.8593C125.302 27.9374 124.406 28.6249 123.25 28.6249C122.089 28.6249 121.193 27.9374 121.193 26.8593V26.8124ZM121.411 31.6614C121.406 31.4062 121.443 31.1614 121.531 30.927C121.62 30.6926 121.755 30.4791 121.922 30.2968C122.094 30.1145 122.302 29.9739 122.531 29.8749C122.76 29.7812 123.005 29.7291 123.25 29.7291C123.49 29.7291 123.74 29.7812 123.964 29.8749C124.198 29.9739 124.401 30.1145 124.573 30.2968C124.745 30.4791 124.88 30.6926 124.964 30.927C125.052 31.1614 125.094 31.4114 125.089 31.6614V41.3645C125.094 41.6145 125.052 41.8645 124.964 42.0937C124.875 42.328 124.74 42.5416 124.573 42.7239C124.401 42.9062 124.198 43.0468 123.964 43.1458C123.734 43.2447 123.49 43.2968 123.25 43.2968C123.005 43.2968 122.755 43.2447 122.531 43.1458C122.307 43.0468 122.094 42.9062 121.922 42.7239C121.75 42.5416 121.615 42.328 121.531 42.0937C121.443 41.8645 121.406 41.6093 121.411 41.3645V31.6614Z" fill="#262626"/>
<path d="M129.151 39.3593V33.1353H129.031C128.818 33.1458 128.609 33.1093 128.411 33.0312C128.208 32.953 128.031 32.8385 127.88 32.6874C127.724 32.5416 127.604 32.3645 127.521 32.1666C127.438 31.9687 127.391 31.7551 127.391 31.5416C127.391 31.328 127.438 31.1145 127.521 30.9218C127.604 30.7239 127.724 30.5416 127.88 30.3958C128.031 30.2447 128.208 30.1301 128.411 30.052C128.609 29.9739 128.818 29.9426 129.031 29.9478H129.151V28.302C129.151 27.802 129.344 27.328 129.698 26.9791C130.047 26.6301 130.516 26.427 131 26.427C131.49 26.427 131.964 26.6197 132.307 26.9791C132.656 27.3333 132.854 27.8072 132.854 28.302V29.9426H134.474C134.875 29.9583 135.266 30.1301 135.547 30.427C135.828 30.7239 135.99 31.1197 135.99 31.5312C135.99 31.9374 135.828 32.3385 135.547 32.6301C135.266 32.927 134.88 33.1041 134.474 33.1197H132.854V38.7239C132.854 39.578 133.219 39.9999 134.036 39.9999C134.156 39.9999 134.401 39.9739 134.474 39.9739C134.875 39.9739 135.26 40.1458 135.547 40.4322C135.839 40.7239 135.995 41.1093 135.995 41.5208C135.995 41.8228 135.901 42.1145 135.734 42.3593C135.568 42.6093 135.328 42.802 135.047 42.9114C134.375 43.1718 133.667 43.302 132.943 43.2812C130.677 43.2812 129.151 42.3801 129.151 39.3385V39.3593Z" fill="#262626"/>
<mask id="mask0_717_15751" style="mask-type:luminance" maskUnits="userSpaceOnUse" x="137" y="25" width="10" height="19">
<path d="M137.333 25.3333H146.13V43.9999H137.333V25.3333Z" fill="white"/>
</mask>
<g mask="url(#mask0_717_15751)">
<path d="M139.193 39.3593V33.1353H139.068C138.667 33.1197 138.276 32.9426 137.995 32.651C137.714 32.3541 137.552 31.9583 137.552 31.5468C137.552 31.1405 137.714 30.7395 137.995 30.4478C138.276 30.151 138.661 29.9739 139.068 29.9583H139.193V28.3124C139.208 27.8333 139.406 27.3749 139.755 27.0416C140.094 26.7083 140.557 26.5208 141.026 26.5208C141.5 26.5208 141.964 26.7083 142.302 27.0416C142.646 27.3801 142.849 27.8333 142.865 28.3124V29.953H144.484C144.698 29.9478 144.906 29.9791 145.109 30.0572C145.307 30.1353 145.484 30.2499 145.641 30.401C145.792 30.552 145.911 30.7239 145.995 30.927C146.078 31.1197 146.125 31.3333 146.125 31.5468C146.125 31.7603 146.078 31.9791 145.995 32.1718C145.911 32.3645 145.792 32.5468 145.641 32.6978C145.484 32.8437 145.307 32.9635 145.109 33.0416C144.906 33.1197 144.698 33.151 144.484 33.1458H142.865V38.7499C142.865 39.6041 143.229 40.026 144.052 40.026C144.172 40.026 144.417 39.9999 144.484 39.9999C144.891 39.9999 145.271 40.1718 145.563 40.4583C145.844 40.7499 146.01 41.1353 146.01 41.5468C146.01 41.8437 145.911 42.1405 145.745 42.3853C145.578 42.6353 145.344 42.828 145.063 42.9374C144.391 43.1978 143.677 43.328 142.953 43.3072C140.714 43.3072 139.177 42.4062 139.177 39.3645L139.193 39.3593Z" fill="#262626"/>
</g>
<mask id="mask1_717_15751" style="mask-type:luminance" maskUnits="userSpaceOnUse" x="13" y="15" width="39" height="41">
<path d="M13.5834 15.4219H52V55.6771H13.5834V15.4219Z" fill="white"/>
</mask>
<g mask="url(#mask1_717_15751)">
<path fill-rule="evenodd" clip-rule="evenodd" d="M28.1668 26.7604C33.1095 23.5937 38.7136 25.7187 41.3074 28.9479C42.7553 30.776 44.1459 32.4844 47.2813 31.5677C49.3959 30.9583 51.1407 28.7083 50.5418 25.7187C49.8803 22.5573 44.4532 18.4844 41.073 17.0156C32.5678 13.3646 22.5001 16.2812 17.2501 23.9583C12.3647 31.0156 12.3074 40.6354 17.4272 47.4062C24.4845 56.8906 37.5105 58.4687 46.5522 50.6354C47.7605 49.5937 49.9272 47.4062 50.4793 45.6406C51.8022 41.3177 46.2605 35.901 41.4897 41.8698C40.0418 43.6302 38.4741 44.7916 36.1824 45.4583C29.9688 47.2864 23.5157 42.4114 23.2709 35.9635C23.1876 34.1198 23.5991 32.2916 24.4636 30.6719C25.323 29.0521 26.6043 27.6979 28.1668 26.75V26.7604Z" fill="#262626"/>
</g>
<path fill-rule="evenodd" clip-rule="evenodd" d="M41.6146 33.5782C40.7969 32.9896 40.099 32.2448 39.5677 31.3854C38.9896 30.5157 38.2344 29.7813 37.3437 29.2344C36.4635 28.6875 35.4687 28.3386 34.4375 28.224C29.4323 27.7344 25.5156 31.8125 26.3594 36.9896C27.0833 41.3698 32.2083 44.4167 36.6146 42.2865C41.0208 40.1511 44.9896 31.5677 50.2448 38.4532C51.0937 39.5469 52.2969 40.4636 53.8646 40.5834C57.0677 40.7657 59.8385 38.1459 59.1094 34.6198C58.9531 33.8802 58.6406 33.1875 58.1875 32.5886C57.7292 31.9896 57.1406 31.5052 56.474 31.1667C55.8125 30.8282 55.0729 30.6563 54.3229 30.6563C53.5781 30.6563 52.8385 30.8229 52.1667 31.1459C47.8854 33.1563 47.8281 37.9011 41.6146 33.5834V33.5782Z" fill="#262626"/>
</g>
<defs>
<clipPath id="clip0_717_15751">
<rect width="160" height="72" fill="white"/>
</clipPath>
</defs>
</svg>
