<svg width="160" height="72" viewBox="0 0 160 72" fill="none" xmlns="http://www.w3.org/2000/svg">
<path d="M53.2604 32.1146C52.7865 32.1146 52.3333 32.2031 51.8958 32.3906C51.4583 32.5729 51.0677 32.8333 50.7344 33.1719C50.401 33.5104 50.1406 33.901 49.9583 34.3437C49.776 34.7864 49.6875 35.25 49.6875 35.7291C49.6875 36.2083 49.776 36.6666 49.9583 37.1094C50.1406 37.5521 50.401 37.9427 50.7344 38.2812C51.0677 38.6198 51.4583 38.8802 51.8958 39.0677C52.3333 39.25 52.7865 39.3437 53.2604 39.3437C54.401 39.3073 55.375 38.8854 56.1823 38.0729L57.3958 39.4427C56.2344 40.6458 54.8229 41.2656 53.1615 41.3073C52.7969 41.3177 52.4323 41.2864 52.0729 41.2239C51.7083 41.1614 51.3594 41.0625 51.0156 40.9271C50.6771 40.7916 50.349 40.625 50.0417 40.4219C49.7344 40.2187 49.4479 39.9896 49.1875 39.7291C48.9271 39.4739 48.6927 39.1875 48.4896 38.8802C48.2812 38.5781 48.1094 38.25 47.9688 37.9114C47.8281 37.5677 47.7187 37.2135 47.651 36.8489C47.5781 36.4844 47.5469 36.1198 47.5469 35.75C47.5521 35.3802 47.5885 35.0104 47.6667 34.651C47.7396 34.2864 47.8542 33.9375 48 33.5937C48.1458 33.2552 48.3229 32.9323 48.5312 32.6302C48.7396 32.3281 48.9792 32.0469 49.2448 31.7916C49.5104 31.5364 49.7969 31.3073 50.1094 31.1146C50.4219 30.9166 50.7448 30.75 51.0885 30.6198C51.4323 30.4896 51.7865 30.3958 52.1458 30.3385C52.5104 30.2812 52.875 30.2604 53.2396 30.276C54.8542 30.2969 56.2396 30.875 57.3958 32.0156L56.1979 33.5416C55.4271 32.6302 54.4479 32.1562 53.2604 32.1146Z" fill="#262626"/>
<path d="M62.099 28.5469C62.099 28.0729 61.724 27.8177 61.099 27.8177C60.4219 27.875 59.8334 28.1406 59.3386 28.6094L58.849 27.6771C59.5417 27.0885 60.349 26.776 61.2552 26.75C62.4896 26.75 63.3334 27.3802 63.3334 28.3698C63.198 29.224 62.7969 29.9219 62.1407 30.4688L60.5313 32.0938H63.6094V33.1615H58.9636V32.2917L61.3334 29.8385C61.7344 29.4948 61.9896 29.0625 62.099 28.5469Z" fill="#262626"/>
<path d="M74.4791 34.0729C74.4791 36.5469 72.9323 37.9948 70.2291 37.9948H67.875V41.1823H65.8229V30.3281H70.2291C72.9323 30.3281 74.4791 31.6771 74.4791 34.0729ZM72.5208 34.1302C72.5208 32.8073 71.6406 32.151 70.1093 32.151H67.8802V36.1719H70.1093C71.6614 36.151 72.5208 35.5 72.5208 34.1302Z" fill="#262626"/>
<path d="M84.8229 30.3281V32.151H79.0052V34.8438H84.2187V36.6667H79.0052V39.401H85V41.2188H76.9479V30.3698H84.8229V30.3281Z" fill="#262626"/>
<path d="M94.5833 41.1823L92.7188 37.974C92.5885 37.9896 92.4583 38 92.3281 37.9948H89.901V41.1823H87.8438V30.3281H92.3281C95.1094 30.3281 96.6979 31.6771 96.6979 34.0729C96.7552 34.8333 96.5885 35.5365 96.1927 36.1823C95.8021 36.8333 95.2552 37.3021 94.5625 37.599L96.9323 41.2031H94.5781L94.5833 41.1823ZM89.9219 36.151H92.349C93.875 36.151 94.7396 35.4792 94.7396 34.1146C94.7396 32.7865 93.875 32.1354 92.349 32.1354H89.9219V36.151Z" fill="#262626"/>
<path d="M107.141 30.3281L107.12 32.151H101.771V35.0833H106.635V36.9062H101.776V41.2031H99.7135V30.349H107.141V30.3281Z" fill="#262626"/>
<path d="M120.052 35.7551C120.016 36.4999 119.849 37.2083 119.542 37.8905C119.24 38.5676 118.818 39.1614 118.286 39.677C117.755 40.1926 117.146 40.5885 116.464 40.8645C115.776 41.1405 115.068 41.2812 114.328 41.2812C113.594 41.2812 112.885 41.1405 112.198 40.8645C111.516 40.5885 110.906 40.1926 110.375 39.677C109.844 39.1614 109.422 38.5676 109.12 37.8905C108.812 37.2083 108.646 36.4999 108.609 35.7551C108.609 32.6301 111.099 30.2708 114.328 30.2708C117.562 30.2708 120.052 32.6301 120.052 35.7551ZM110.708 35.7551C110.714 36.2447 110.807 36.7083 110.99 37.1614C111.177 37.6093 111.443 38.0051 111.781 38.3489C112.125 38.6926 112.516 38.953 112.964 39.1405C113.406 39.328 113.87 39.4218 114.354 39.4218C114.828 39.4166 115.286 39.3176 115.724 39.1301C116.161 38.9426 116.547 38.677 116.885 38.3333C117.219 37.9895 117.474 37.5937 117.651 37.1458C117.833 36.703 117.922 36.2395 117.917 35.7551C117.917 35.276 117.823 34.8124 117.641 34.3697C117.453 33.9218 117.193 33.5312 116.854 33.1926C116.521 32.8541 116.13 32.5937 115.688 32.4062C115.25 32.2239 114.792 32.1301 114.312 32.1301C113.839 32.1301 113.38 32.2239 112.938 32.4062C112.5 32.5937 112.109 32.8541 111.771 33.1926C111.432 33.5312 111.172 33.9218 110.99 34.3697C110.802 34.8124 110.714 35.276 110.708 35.7551Z" fill="#262626"/>
<path d="M129.359 41.1823L127.495 37.974C127.365 37.9896 127.234 38 127.104 37.9948H124.677V41.1823H122.62V30.3281H127.104C129.885 30.3281 131.474 31.6771 131.474 34.0729C131.531 34.8333 131.365 35.5365 130.969 36.1823C130.578 36.8333 130.031 37.3021 129.339 37.599L131.708 41.2031H129.354L129.359 41.1823ZM124.693 36.151H127.125C128.651 36.151 129.516 35.4792 129.516 34.1146C129.516 32.7865 128.651 32.1354 127.125 32.1354H124.693V36.151Z" fill="#262626"/>
<mask id="mask0_717_15776" style="mask-type:luminance" maskUnits="userSpaceOnUse" x="133" y="29" width="14" height="13">
<path d="M133.333 29.3333H146.13V41.3333H133.333V29.3333Z" fill="white"/>
</mask>
<g mask="url(#mask0_717_15776)">
<path d="M136.88 30.3281L140.25 37.3021L143.62 30.3281H145.995V41.1823H144.109L144.089 33.4219L140.917 40.0521H139.583L136.412 33.4219V41.1823H134.51V30.3281H136.88Z" fill="#262626"/>
</g>
<path d="M28.0677 35.4583C28.0677 35.7083 28.0208 35.9479 27.9271 36.1771C27.8333 36.4115 27.6979 36.6146 27.5208 36.7917C27.349 36.9687 27.1458 37.1042 26.9167 37.1979C26.6927 37.2917 26.4531 37.3385 26.2083 37.3385C25.9583 37.3385 25.724 37.2917 25.4948 37.1979C25.2656 37.1042 25.0677 36.9687 24.8906 36.7917C24.7135 36.6146 24.5833 36.4115 24.4896 36.1771C24.3906 35.9479 24.3438 35.7083 24.3438 35.4583C24.3438 35.2083 24.3906 34.9687 24.4896 34.7396C24.5833 34.5104 24.7135 34.3073 24.8906 34.1302C25.0677 33.9531 25.2656 33.8177 25.4948 33.7188C25.724 33.625 25.9583 33.5781 26.2083 33.5781C26.4531 33.5781 26.6927 33.625 26.9167 33.7188C27.1458 33.8177 27.349 33.9531 27.5208 34.1302C27.6979 34.3073 27.8333 34.5104 27.9271 34.7396C28.0208 34.9687 28.0677 35.2083 28.0677 35.4583Z" fill="#262626"/>
<path d="M33.3594 25.599C33.3594 25.7709 33.323 25.9376 33.2605 26.099C33.1927 26.2605 33.099 26.4011 32.9792 26.5209C32.8594 26.6459 32.7188 26.7397 32.5573 26.8074C32.4011 26.8699 32.2344 26.9063 32.0625 26.9063C31.8907 26.9063 31.7292 26.8699 31.5677 26.8074C31.4115 26.7397 31.2709 26.6459 31.1511 26.5209C31.0313 26.4011 30.9375 26.2605 30.8698 26.099C30.8021 25.9376 30.7709 25.7709 30.7709 25.599C30.7709 25.4272 30.8021 25.2605 30.8698 25.099C30.9375 24.9376 31.0313 24.797 31.1511 24.672C31.2709 24.5522 31.4115 24.4584 31.5677 24.3907C31.7292 24.323 31.8907 24.2917 32.0625 24.2917C32.2344 24.2917 32.4011 24.323 32.5573 24.3907C32.7188 24.4584 32.8594 24.5522 32.9792 24.672C33.099 24.797 33.1927 24.9376 33.2605 25.099C33.323 25.2605 33.3594 25.4272 33.3594 25.599Z" fill="#262626"/>
<path d="M33.3594 32.2292C33.3594 32.4063 33.323 32.5729 33.2605 32.7292C33.1927 32.8906 33.099 33.0312 32.9792 33.1562C32.8594 33.276 32.7188 33.375 32.5573 33.4375C32.4011 33.5052 32.2344 33.5365 32.0625 33.5365C31.8907 33.5365 31.7292 33.5052 31.5677 33.4375C31.4115 33.375 31.2709 33.276 31.1511 33.1562C31.0313 33.0312 30.9375 32.8906 30.8698 32.7292C30.8021 32.5729 30.7709 32.4063 30.7709 32.2292C30.7709 32.0573 30.8021 31.8906 30.8698 31.7292C30.9375 31.5729 31.0313 31.4323 31.1511 31.3073C31.2709 31.1823 31.4115 31.0885 31.5677 31.026C31.7292 30.9583 31.8907 30.9219 32.0625 30.9219C32.2344 30.9219 32.4011 30.9583 32.5573 31.026C32.7188 31.0885 32.8594 31.1823 32.9792 31.3073C33.099 31.4323 33.1927 31.5729 33.2605 31.7292C33.323 31.8906 33.3594 32.0573 33.3594 32.2292Z" fill="#262626"/>
<path d="M33.3594 38.8437C33.3594 39.0208 33.323 39.1874 33.2605 39.3437C33.1927 39.5051 33.099 39.6458 32.9792 39.7708C32.8594 39.8905 32.7188 39.9843 32.5573 40.052C32.4011 40.1197 32.2344 40.151 32.0625 40.151C31.8907 40.151 31.7292 40.1197 31.5677 40.052C31.4115 39.9843 31.2709 39.8905 31.1511 39.7708C31.0313 39.6458 30.9375 39.5051 30.8698 39.3437C30.8021 39.1874 30.7709 39.0208 30.7709 38.8437C30.7709 38.6718 30.8021 38.5051 30.8698 38.3437C30.9375 38.1874 31.0313 38.0416 31.1511 37.9218C31.2709 37.7968 31.4115 37.703 31.5677 37.6353C31.7292 37.5728 31.8907 37.5364 32.0625 37.5364C32.2344 37.5364 32.4011 37.5728 32.5573 37.6353C32.7188 37.703 32.8594 37.7968 32.9792 37.9218C33.099 38.0416 33.1927 38.1874 33.2605 38.3437C33.323 38.5051 33.3594 38.6718 33.3594 38.8437Z" fill="#262626"/>
<path d="M33.3594 45.4792C33.3594 45.651 33.323 45.8177 33.2605 45.9792C33.1927 46.1406 33.099 46.2813 32.9792 46.401C32.8594 46.526 32.7188 46.6198 32.5573 46.6875C32.4011 46.7552 32.2344 46.7865 32.0625 46.7865C31.8907 46.7865 31.7292 46.7552 31.5677 46.6875C31.4115 46.6198 31.2709 46.526 31.1511 46.401C31.0313 46.2813 30.9375 46.1406 30.8698 45.9792C30.8021 45.8177 30.7709 45.651 30.7709 45.4792C30.7709 45.3073 30.8021 45.1406 30.8698 44.9792C30.9375 44.8177 31.0313 44.6771 31.1511 44.5573C31.2709 44.4323 31.4115 44.3385 31.5677 44.2708C31.7292 44.2031 31.8907 44.1719 32.0625 44.1719C32.2344 44.1719 32.4011 44.2031 32.5573 44.2708C32.7188 44.3385 32.8594 44.4323 32.9792 44.5573C33.099 44.6771 33.1927 44.8177 33.2605 44.9792C33.323 45.1406 33.3594 45.3073 33.3594 45.4792Z" fill="#262626"/>
<path d="M21.7187 25.599C21.7187 25.7709 21.6875 25.9376 21.6198 26.099C21.5573 26.2605 21.4635 26.4011 21.3437 26.5209C21.2187 26.6459 21.0781 26.7397 20.9218 26.8074C20.7656 26.8699 20.5989 26.9063 20.427 26.9063C20.2552 26.9063 20.0885 26.8699 19.9323 26.8074C19.776 26.7397 19.6354 26.6459 19.5104 26.5209C19.3906 26.4011 19.2968 26.2605 19.2343 26.099C19.1666 25.9376 19.1354 25.7709 19.1354 25.599C19.1354 25.4272 19.1666 25.2605 19.2343 25.099C19.2968 24.9376 19.3906 24.797 19.5104 24.672C19.6354 24.5522 19.776 24.4584 19.9323 24.3907C20.0885 24.323 20.2552 24.2917 20.427 24.2917C20.5989 24.2917 20.7656 24.323 20.9218 24.3907C21.0781 24.4584 21.2187 24.5522 21.3437 24.672C21.4635 24.797 21.5573 24.9376 21.6198 25.099C21.6875 25.2605 21.7187 25.4272 21.7187 25.599Z" fill="#262626"/>
<mask id="mask1_717_15776" style="mask-type:luminance" maskUnits="userSpaceOnUse" x="13" y="26" width="3" height="5">
<path d="M13.5834 26.6667H16V30.6667H13.5834V26.6667Z" fill="white"/>
</mask>
<g mask="url(#mask1_717_15776)">
<path d="M15.5313 28.8075C15.5313 29.0575 15.4427 29.271 15.2657 29.4481C15.0886 29.6304 14.875 29.7189 14.6302 29.7189C14.3802 29.7189 14.1667 29.6304 13.9896 29.4481C13.8125 29.271 13.724 29.0575 13.724 28.8075C13.724 28.5522 13.8125 28.3387 13.9896 28.1616C14.1667 27.9845 14.3802 27.896 14.6302 27.896C14.875 27.896 15.0886 27.9845 15.2657 28.1616C15.4427 28.3387 15.5313 28.5522 15.5313 28.8075Z" fill="#262626"/>
</g>
<mask id="mask2_717_15776" style="mask-type:luminance" maskUnits="userSpaceOnUse" x="13" y="40" width="3" height="4">
<path d="M13.5834 40H16V44H13.5834V40Z" fill="white"/>
</mask>
<g mask="url(#mask2_717_15776)">
<path d="M15.5313 42.1353C15.5313 42.3853 15.4427 42.5989 15.2657 42.776C15.0886 42.953 14.875 43.0468 14.6302 43.0468C14.3802 43.0468 14.1667 42.953 13.9896 42.776C13.8125 42.5989 13.724 42.3853 13.724 42.1353C13.724 41.8801 13.8125 41.6666 13.9896 41.4895C14.1667 41.3124 14.3802 41.2239 14.6302 41.2239C14.875 41.2239 15.0886 41.3124 15.2657 41.4895C15.4427 41.6666 15.5313 41.8801 15.5313 42.1353Z" fill="#262626"/>
</g>
<mask id="mask3_717_15776" style="mask-type:luminance" maskUnits="userSpaceOnUse" x="13" y="33" width="3" height="5">
<path d="M13.5834 33.3333H16V37.3333H13.5834V33.3333Z" fill="white"/>
</mask>
<g mask="url(#mask3_717_15776)">
<path d="M15.5313 35.4583C15.5313 35.7135 15.4427 35.9271 15.2657 36.1042C15.0886 36.2813 14.875 36.3698 14.6302 36.3698C14.3802 36.3698 14.1667 36.2813 13.9896 36.1042C13.8125 35.9271 13.724 35.7135 13.724 35.4583C13.724 35.2083 13.8125 34.9948 13.9896 34.8177C14.1667 34.6354 14.3802 34.5469 14.6302 34.5469C14.875 34.5469 15.0886 34.6354 15.2657 34.8177C15.4427 34.9948 15.5313 35.2083 15.5313 35.4583Z" fill="#262626"/>
</g>
<path d="M38.7448 28.8072C38.7448 29.0572 38.6563 29.2708 38.4792 29.4478C38.3073 29.6301 38.0938 29.7187 37.8438 29.7187C37.5938 29.7187 37.3802 29.6301 37.2084 29.4478C37.0313 29.2708 36.9427 29.0572 36.9427 28.8072C36.9427 28.552 37.0313 28.3385 37.2084 28.1614C37.3802 27.9843 37.5938 27.8958 37.8438 27.8958C38.0938 27.8958 38.3073 27.9843 38.4792 28.1614C38.6563 28.3385 38.7448 28.552 38.7448 28.8072Z" fill="#262626"/>
<path d="M38.7448 42.1353C38.7448 42.3853 38.6563 42.5989 38.4792 42.776C38.3073 42.953 38.0938 43.0468 37.8438 43.0468C37.5938 43.0468 37.3802 42.953 37.2084 42.776C37.0313 42.5989 36.9427 42.3853 36.9427 42.1353C36.9427 41.8801 37.0313 41.6666 37.2084 41.4895C37.3802 41.3124 37.5938 41.2239 37.8438 41.2239C38.0938 41.2239 38.3073 41.3124 38.4792 41.4895C38.6563 41.6666 38.7448 41.8801 38.7448 42.1353Z" fill="#262626"/>
<path d="M38.7448 35.4583C38.7448 35.7135 38.6563 35.9271 38.4792 36.1042C38.3073 36.2813 38.0938 36.3698 37.8438 36.3698C37.5938 36.3698 37.3802 36.2813 37.2084 36.1042C37.0313 35.9271 36.9427 35.7135 36.9427 35.4583C36.9427 35.2083 37.0313 34.9948 37.2084 34.8177C37.3802 34.6354 37.5938 34.5469 37.8438 34.5469C38.0938 34.5469 38.3073 34.6354 38.4792 34.8177C38.6563 34.9948 38.7448 35.2083 38.7448 35.4583Z" fill="#262626"/>
<path d="M21.7187 32.2292C21.7187 32.4063 21.6875 32.5729 21.6198 32.7292C21.5573 32.8906 21.4635 33.0312 21.3437 33.1562C21.2187 33.276 21.0781 33.375 20.9218 33.4375C20.7656 33.5052 20.5989 33.5365 20.427 33.5365C20.2552 33.5365 20.0885 33.5052 19.9323 33.4375C19.776 33.375 19.6354 33.276 19.5104 33.1562C19.3906 33.0312 19.2968 32.8906 19.2343 32.7292C19.1666 32.5729 19.1354 32.4063 19.1354 32.2292C19.1354 32.0573 19.1666 31.8906 19.2343 31.7292C19.2968 31.5729 19.3906 31.4323 19.5104 31.3073C19.6354 31.1823 19.776 31.0885 19.9323 31.026C20.0885 30.9583 20.2552 30.9219 20.427 30.9219C20.5989 30.9219 20.7656 30.9583 20.9218 31.026C21.0781 31.0885 21.2187 31.1823 21.3437 31.3073C21.4635 31.4323 21.5573 31.5729 21.6198 31.7292C21.6875 31.8906 21.7187 32.0573 21.7187 32.2292Z" fill="#262626"/>
<path d="M21.7187 38.8437C21.7187 39.0208 21.6875 39.1874 21.6198 39.3437C21.5573 39.5051 21.4635 39.6458 21.3437 39.7708C21.2187 39.8905 21.0781 39.9843 20.9218 40.052C20.7656 40.1197 20.5989 40.151 20.427 40.151C20.2552 40.151 20.0885 40.1197 19.9323 40.052C19.776 39.9843 19.6354 39.8905 19.5104 39.7708C19.3906 39.6458 19.2968 39.5051 19.2343 39.3437C19.1666 39.1874 19.1354 39.0208 19.1354 38.8437C19.1354 38.6718 19.1666 38.5051 19.2343 38.3437C19.2968 38.1874 19.3906 38.0416 19.5104 37.9218C19.6354 37.7968 19.776 37.703 19.9323 37.6353C20.0885 37.5728 20.2552 37.5364 20.427 37.5364C20.5989 37.5364 20.7656 37.5728 20.9218 37.6353C21.0781 37.703 21.2187 37.7968 21.3437 37.9218C21.4635 38.0416 21.5573 38.1874 21.6198 38.3437C21.6875 38.5051 21.7187 38.6718 21.7187 38.8437Z" fill="#262626"/>
<path d="M21.7187 45.4792C21.7187 45.651 21.6875 45.8177 21.6198 45.9792C21.5573 46.1406 21.4635 46.2813 21.3437 46.401C21.2187 46.526 21.0781 46.6198 20.9218 46.6875C20.7656 46.7552 20.5989 46.7865 20.427 46.7865C20.2552 46.7865 20.0885 46.7552 19.9323 46.6875C19.776 46.6198 19.6354 46.526 19.5104 46.401C19.3906 46.2813 19.2968 46.1406 19.2343 45.9792C19.1666 45.8177 19.1354 45.651 19.1354 45.4792C19.1354 45.3073 19.1666 45.1406 19.2343 44.9792C19.2968 44.8177 19.3906 44.6771 19.5104 44.5573C19.6354 44.4323 19.776 44.3385 19.9323 44.2708C20.0885 44.2031 20.2552 44.1719 20.427 44.1719C20.5989 44.1719 20.7656 44.2031 20.9218 44.2708C21.0781 44.3385 21.2187 44.4323 21.3437 44.5573C21.4635 44.6771 21.5573 44.8177 21.6198 44.9792C21.6875 45.1406 21.7187 45.3073 21.7187 45.4792Z" fill="#262626"/>
<path d="M28.0677 42.1354C28.0677 42.3802 28.0208 42.625 27.9271 42.8542C27.8333 43.0833 27.6979 43.2865 27.5208 43.4635C27.349 43.6406 27.1458 43.776 26.9167 43.8698C26.6927 43.9687 26.4531 44.0156 26.2083 44.0156C25.9583 44.0156 25.724 43.9687 25.4948 43.8698C25.2656 43.776 25.0677 43.6406 24.8906 43.4635C24.7135 43.2865 24.5833 43.0833 24.4896 42.8542C24.3906 42.625 24.3438 42.3802 24.3438 42.1354C24.3438 41.8854 24.3906 41.6458 24.4896 41.4115C24.5833 41.1823 24.7135 40.9792 24.8906 40.8021C25.0677 40.625 25.2656 40.4896 25.4948 40.3958C25.724 40.2969 25.9583 40.25 26.2083 40.25C26.4531 40.25 26.6927 40.2969 26.9167 40.3958C27.1458 40.4896 27.349 40.625 27.5208 40.8021C27.6979 40.9792 27.8333 41.1823 27.9271 41.4115C28.0208 41.6458 28.0677 41.8854 28.0677 42.1354Z" fill="#262626"/>
<mask id="mask4_717_15776" style="mask-type:luminance" maskUnits="userSpaceOnUse" x="24" y="46" width="6" height="5">
<path d="M24 46.6667H29.3333V50.6876H24V46.6667Z" fill="white"/>
</mask>
<g mask="url(#mask4_717_15776)">
<path d="M28.0677 48.8075C28.0677 49.0575 28.0208 49.297 27.9271 49.5262C27.8333 49.7554 27.6979 49.9585 27.5208 50.1356C27.349 50.3127 27.1458 50.4481 26.9167 50.547C26.6927 50.6408 26.4531 50.6877 26.2083 50.6877C25.9583 50.6877 25.724 50.6408 25.4948 50.547C25.2656 50.4481 25.0677 50.3127 24.8906 50.1356C24.7135 49.9585 24.5833 49.7554 24.4896 49.5262C24.3906 49.297 24.3438 49.0575 24.3438 48.8075C24.3438 48.5575 24.3906 48.3179 24.4896 48.0887C24.5833 47.8543 24.7135 47.6512 24.8906 47.4741C25.0677 47.297 25.2656 47.1616 25.4948 47.0679C25.724 46.9741 25.9583 46.9272 26.2083 46.9272C26.4531 46.9272 26.6927 46.9741 26.9167 47.0679C27.1458 47.1616 27.349 47.297 27.5208 47.4741C27.6979 47.6512 27.8333 47.8543 27.9271 48.0887C28.0208 48.3179 28.0677 48.5575 28.0677 48.8075Z" fill="#262626"/>
</g>
<path d="M28.0677 28.8073C28.0677 29.0573 28.0208 29.2969 27.9271 29.526C27.8333 29.7552 27.6979 29.9583 27.5208 30.1354C27.349 30.3125 27.1458 30.4479 26.9167 30.5417C26.6927 30.6406 26.4531 30.6875 26.2083 30.6875C25.9583 30.6875 25.724 30.6406 25.4948 30.5417C25.2656 30.4479 25.0677 30.3125 24.8906 30.1354C24.7135 29.9583 24.5833 29.7552 24.4896 29.526C24.3906 29.2969 24.3438 29.0573 24.3438 28.8073C24.3438 28.5573 24.3906 28.3177 24.4896 28.0833C24.5833 27.8542 24.7135 27.651 24.8906 27.474C25.0677 27.2969 25.2656 27.1615 25.4948 27.0677C25.724 26.974 25.9583 26.9219 26.2083 26.9219C26.4531 26.9219 26.6927 26.974 26.9167 27.0677C27.1458 27.1615 27.349 27.2969 27.5208 27.474C27.6979 27.651 27.8333 27.8542 27.9271 28.0833C28.0208 28.3177 28.0677 28.5573 28.0677 28.8073Z" fill="#262626"/>
<mask id="mask5_717_15776" style="mask-type:luminance" maskUnits="userSpaceOnUse" x="24" y="20" width="6" height="6">
<path d="M24 20.25H29.3333V25.3333H24V20.25Z" fill="white"/>
</mask>
<g mask="url(#mask5_717_15776)">
<path d="M28.0677 22.1302C28.0677 22.3802 28.0208 22.6198 27.9271 22.8542C27.8333 23.0833 27.6979 23.2865 27.5208 23.4635C27.349 23.6406 27.1458 23.776 26.9167 23.8698C26.6927 23.9687 26.4531 24.0156 26.2083 24.0156C25.9583 24.0156 25.724 23.9687 25.4948 23.8698C25.2656 23.776 25.0677 23.6406 24.8906 23.4635C24.7135 23.2865 24.5833 23.0833 24.4896 22.8542C24.3906 22.6198 24.3438 22.3802 24.3438 22.1302C24.3438 21.8854 24.3906 21.6458 24.4896 21.4115C24.5833 21.1823 24.7135 20.9792 24.8906 20.8021C25.0677 20.625 25.2656 20.4896 25.4948 20.3958C25.724 20.2969 25.9583 20.25 26.2083 20.25C26.4531 20.25 26.6927 20.2969 26.9167 20.3958C27.1458 20.4896 27.349 20.625 27.5208 20.8021C27.6979 20.9792 27.8333 21.1823 27.9271 21.4115C28.0208 21.6458 28.0677 21.8854 28.0677 22.1302Z" fill="#262626"/>
</g>
</svg>
